# xmcd
#
# Track frame offsets:
#	150
#	16652
#	32468
#	45493
#	59724
#	73095
#	87218
#	104388
#	118967
#	137641
#
# Disc length: 2059 seconds
#
# Revision: 1
# Processed by: cddbd v1.5.2PL0 Copyright (c) Steve Scherf et al.
# Submitted via: audiograbber 1.83.01
#
DISCID=8408090a
DTITLE=Ben Miller Band - Heavy Load
DYEAR=2012
DGENRE=Bluegrass
TTITLE0=Your Dyin' Ass
TTITLE1=I Got Another One
TTITLE2=Strike Up The Band
TTITLE3=Holly
TTITLE4=I Don't Want You
TTITLE5=Love Is War
TTITLE6=Alone
TTITLE7=No One Came
TTITLE8=Heavy Load
TTITLE9=Get Right Church
EXTD=
EXTT0=
EXTT1=
EXTT2=
EXTT3=
EXTT4=
EXTT5=
EXTT6=
EXTT7=
EXTT8=
EXTT9=
PLAYORDER=
